<?xml version="1.0" standalone="no"?>
<!DOCTYPE svg PUBLIC "-//W3C//DTD SVG 20010904//EN"
 "http://www.w3.org/TR/2001/REC-SVG-20010904/DTD/svg10.dtd">
<svg version="1.0" xmlns="http://www.w3.org/2000/svg"
 width="375.000000pt" height="375.000000pt" viewBox="0 0 375.000000 375.000000"
 preserveAspectRatio="xMidYMid meet">
<metadata>
Created by potrace 1.11, written by Peter Selinger 2001-2013
</metadata>
<g transform="translate(0.000000,375.000000) scale(0.100000,-0.100000)"
fill="#000000" stroke="none">
<path d="M1495 3694 c-92 -19 -162 -38 -172 -46 -7 -6 -13 -7 -13 -3 0 4 -11
0 -25 -9 -14 -9 -25 -14 -25 -11 0 8 -91 -40 -155 -81 -104 -66 -213 -182
-277 -294 -25 -44 -66 -146 -74 -185 -15 -68 -18 -100 -17 -185 0 -162 52
-306 160 -448 31 -40 53 -75 50 -79 -7 -6 -52 20 -75 44 -7 7 -18 16 -25 20
-25 16 -89 122 -117 195 -35 91 -57 216 -54 314 2 83 11 150 20 166 5 7 2 8
-5 4 -22 -14 -82 -150 -106 -241 -33 -127 -30 -304 8 -420 29 -88 85 -190 144
-262 32 -39 62 -66 170 -153 7 -6 14 -10 16 -10 19 0 97 -44 90 -51 -17 -17
-181 35 -258 83 -63 40 -148 151 -171 223 -12 38 -13 35 -9 -45 3 -47 13 -115
25 -150 21 -70 92 -190 111 -190 7 0 9 -3 6 -6 -12 -12 153 -154 178 -154 4 0
19 -9 35 -20 15 -11 30 -17 34 -13 3 3 6 1 6 -5 0 -7 3 -11 8 -10 4 0 16 -2
27 -6 79 -30 100 -37 133 -42 20 -3 51 -9 68 -13 17 -5 81 -8 142 -7 62 0 112
-2 112 -5 0 -9 -73 -38 -118 -47 -40 -8 -235 -9 -267 -1 -48 11 -155 53 -155
61 0 4 -6 8 -14 8 -8 0 -16 6 -19 13 -2 6 -7 9 -11 6 -3 -3 3 -15 14 -27 11
-12 20 -25 20 -30 0 -14 70 -75 125 -108 45 -28 144 -70 188 -80 46 -11 65
-14 107 -21 52 -7 210 -8 258 -1 17 3 32 4 32 3 0 -1 -9 -12 -20 -25 -11 -13
-20 -30 -20 -38 0 -9 -3 -12 -7 -9 -17 18 -60 -144 -57 -218 2 -61 14 -126 31
-165 l16 -35 12 81 c13 86 50 169 75 169 21 0 24 -31 6 -70 -31 -64 -38 -181
-18 -275 18 -82 52 -149 99 -197 32 -34 36 -35 29 -13 -15 45 -15 165 0 184
12 17 13 16 19 -10 3 -16 10 -45 14 -65 13 -60 6 -200 -13 -263 -29 -95 -25
-160 18 -247 20 -41 48 -87 62 -104 l26 -30 -16 32 c-9 18 -16 35 -16 38 0 3
0 6 -1 8 -5 11 -9 72 -9 117 1 72 4 92 15 110 5 8 10 17 11 20 0 3 10 25 22
50 11 25 24 61 27 79 3 19 7 37 9 40 10 17 16 150 8 172 -8 19 -6 30 8 48 14
19 19 21 26 10 12 -19 14 -168 3 -175 -5 -3 -9 -13 -9 -22 1 -30 89 79 111
138 29 75 33 102 32 200 -1 56 -9 105 -22 145 -14 43 -17 63 -9 72 15 18 26
16 33 -7 4 -12 11 -17 18 -14 7 4 9 4 5 0 -3 -4 2 -32 13 -63 10 -30 19 -79
20 -109 2 -52 14 -62 22 -19 2 11 10 34 17 50 7 17 13 70 13 125 0 106 -17
168 -64 236 -15 23 -26 44 -23 46 2 3 22 2 43 -2 44 -8 161 -6 241 4 91 12
260 69 260 89 0 6 3 8 6 4 16 -16 144 97 174 153 11 20 10 20 -28 -3 -34 -22
-98 -48 -157 -64 -50 -14 -232 -12 -290 3 -58 15 -121 43 -100 44 6 0 64 2
130 4 66 2 131 7 145 10 14 3 36 8 50 12 42 9 55 12 58 14 1 2 5 3 10 5 30 8
164 67 172 75 3 3 25 18 50 34 69 44 165 151 205 227 20 38 33 74 30 79 -3 6
-2 10 3 10 13 0 32 110 32 180 0 55 -6 64 -12 20 -11 -72 -112 -195 -198 -242
-50 -27 -124 -58 -155 -64 -99 -21 -112 -11 -32 26 172 80 323 263 380 460 22
78 30 143 28 230 -3 100 -4 110 -12 110 -3 0 -4 11 -1 25 2 15 0 25 -7 25 -7
0 -10 4 -6 9 6 11 -18 89 -45 141 -40 80 -52 101 -56 97 -3 -2 -1 -31 5 -63 9
-64 7 -187 -5 -256 -4 -24 -8 -50 -9 -58 -3 -17 -8 -33 -37 -110 -33 -85 -121
-210 -148 -210 -5 0 -10 -4 -10 -8 0 -11 -51 -35 -58 -27 -3 3 4 16 16 28 12
13 19 27 15 32 -5 4 -3 5 3 2 12 -7 67 68 67 90 0 7 3 10 7 8 8 -5 71 130 75
160 1 11 6 28 10 39 4 10 8 31 9 47 1 16 4 29 7 29 13 0 2 208 -14 272 -41
169 -150 334 -287 437 -19 14 -37 29 -40 33 -7 9 -209 111 -230 117 -8 2 -46
12 -85 22 -38 11 -74 18 -80 16 -5 -2 29 -23 78 -47 48 -24 87 -47 87 -51 0
-4 9 -11 21 -14 33 -11 150 -135 188 -199 37 -62 67 -143 76 -208 8 -51 8
-145 1 -177 -39 -173 -99 -263 -269 -406 -36 -30 -200 -110 -240 -117 -10 -2
-30 -25 -45 -53 -15 -27 -29 -52 -32 -55 -3 -3 -21 -29 -40 -59 l-34 -54 -23
29 c-22 27 -31 73 -17 87 4 3 15 2 26 -4 13 -7 8 5 -17 39 -19 27 -35 53 -35
57 0 8 69 -3 85 -13 13 -8 -13 15 -78 70 -64 54 -53 67 61 69 30 1 50 5 45 9
-7 6 -97 43 -113 46 -3 0 -18 6 -34 13 -52 21 -146 22 -191 2 -22 -10 -55 -24
-73 -31 -37 -14 -82 -47 -82 -60 0 -4 22 -8 49 -7 75 1 107 -17 114 -61 4 -20
4 -55 1 -77 -3 -22 -7 -50 -8 -63 -1 -12 -18 -41 -36 -64 l-33 -41 -29 34
c-15 19 -35 42 -43 52 -8 9 -13 17 -10 17 3 0 -6 18 -20 40 -14 22 -25 44 -25
50 0 6 -15 16 -32 24 -18 8 -57 24 -87 37 -30 13 -56 23 -58 21 -2 -1 -13 7
-25 18 -12 11 -28 20 -35 20 -7 0 -13 5 -13 10 0 6 -7 10 -15 10 -8 0 -15 5
-15 10 0 6 -5 10 -10 10 -17 0 -127 116 -165 173 -62 93 -101 230 -96 332 6
105 59 251 118 325 87 108 263 233 348 247 11 2 24 8 29 13 6 6 8 9 6 9 -3 -1
-14 -3 -25 -5z m355 -1079 c11 -13 7 -15 -26 -15 -36 1 -38 2 -20 15 25 19 31
19 46 0z"/>
<path d="M2220 3690 c18 -12 30 -13 30 -2 0 4 -10 9 -22 9 -18 2 -20 0 -8 -7z"/>
</g>
</svg>
